<svg width="90" height="90" viewBox="0 0 90 90" fill="none" xmlns="http://www.w3.org/2000/svg">
<path d="M77.1469 12.8531H81.4219V59.9906H77.1469V12.8531ZM72.8438 59.9906H77.1469V68.5687H72.8438V59.9906ZM68.5688 68.5687H72.8438V72.8718H68.5688V68.5687ZM68.5688 8.5781H77.1469V12.8531H68.5688V8.5781ZM64.2938 72.8718H68.5688V77.1469H64.2938V72.8718ZM59.9907 77.1469H64.2938V81.4219H59.9907V77.1469ZM59.9907 59.9906H64.2938V64.2937H59.9907V59.9906ZM64.2938 21.4312H59.9907V17.1562H30.0094V21.4312H25.7063V25.7062H21.4313V59.9906H25.7063V42.8625H30.0094V38.5875H59.9907V42.8625H64.2938V59.9906H68.5688V25.7062H64.2938V21.4312ZM59.9907 4.3031H68.5688V8.5781H59.9907V4.3031ZM55.7156 64.2937H59.9907V68.5687H55.7156V64.2937Z" fill="#1C2176"/>
<path d="M55.7156 47.1375H59.9906V55.7156H55.7156V47.1375ZM51.4406 81.4219H59.9906V85.725H51.4406V81.4219ZM34.2844 68.5687H55.7156V72.8719H34.2844V68.5687ZM38.5594 85.725H51.4406V90H38.5594V85.725ZM38.5594 59.9906H51.4406V64.2938H38.5594V59.9906ZM30.0094 81.4219H38.5594V85.725H30.0094V81.4219ZM30.0094 0H59.9906V4.30312H30.0094V0ZM30.0094 64.2938H34.2844V68.5687H30.0094V64.2938ZM30.0094 47.1375H34.2844V55.7156H30.0094V47.1375ZM25.7063 77.1469H30.0094V81.4219H25.7063V77.1469ZM25.7063 59.9906H30.0094V64.2938H25.7063V59.9906ZM21.4312 4.30312H30.0094V8.57812H21.4312V4.30312ZM21.4312 72.8719H25.7063V77.1469H21.4312V72.8719ZM17.1281 68.5687H21.4312V72.8719H17.1281V68.5687ZM12.8531 8.57812H21.4312V12.8531H12.8531V8.57812ZM12.8531 59.9906H17.1281V68.5687H12.8531V59.9906ZM8.57812 12.8531H12.8531V59.9906H8.57812V12.8531Z" fill="#1C2176"/>
</svg>
