<svg width="50" height="50" viewBox="0 0 50 50" fill="none" xmlns="http://www.w3.org/2000/svg">
<path d="M47.6094 8.32812H50V36.9063H47.6094V8.32812ZM45.2344 36.9063H47.6094V39.2812H45.2344V36.9063ZM45.2344 5.95312H47.6094V8.32812H45.2344V5.95312ZM42.8594 39.2812H45.2344V41.6562H42.8594V39.2812ZM42.8594 3.5625H45.2344V5.95312H42.8594V3.5625ZM40.4687 32.1406H42.8594V34.5156H40.4687V32.1406ZM40.4687 10.7188H42.8594V13.0937H40.4687V10.7188ZM35.7031 41.6562H42.8594V44.0469H35.7031V41.6562ZM38.0937 29.7656H40.4687V32.1406H38.0937V29.7656ZM38.0937 13.0937H40.4687V15.4687H38.0937V13.0937ZM35.7031 1.1875H42.8594V3.5625H35.7031V1.1875ZM35.7031 15.4687H38.0937V29.7656H35.7031V15.4687ZM30.9531 39.2812H35.7031V41.6562H30.9531V39.2812ZM30.9531 3.5625H35.7031V5.95312H30.9531V3.5625ZM26.1875 36.9063H30.9531V39.2812H26.1875V36.9063ZM26.1875 5.95312H30.9531V8.32812H26.1875V5.95312ZM19.0469 34.5156H26.1875V36.9063H19.0469V34.5156ZM19.0469 8.32812H26.1875V10.7188H19.0469V8.32812ZM14.2813 32.1406V13.0937H19.0469V10.7188H7.14063V13.0937H2.375V15.4687H0V29.7656H2.375V32.1406H7.14063V46.4219H9.51563V34.5156H14.2813V46.4219H16.6562V34.5156H19.0469V32.1406H14.2813ZM7.14063 17.8594H4.76562V22.6094H2.375V17.8594H4.76562V15.4687H7.14063V17.8594ZM9.51563 46.4219H14.2813V48.8125H9.51563V46.4219Z" fill="#1C2176"/>
</svg>
