<svg width="30" height="30" viewBox="0 0 30 30" fill="none" xmlns="http://www.w3.org/2000/svg">
<path d="M25.7157 5.7188H27.1407V17.1469H25.7157V5.7188ZM24.2813 17.1469H25.7157V18.5719H24.2813V17.1469ZM24.2813 4.28442H25.7157V5.7188H24.2813V4.28442ZM22.8563 18.5719H24.2813V19.9969H22.8563V18.5719ZM22.8563 2.85942H24.2813V4.28442H22.8563V2.85942ZM21.422 19.9969H22.8563V21.4313H21.422V19.9969ZM21.422 1.42505H22.8563V2.85942H21.422V1.42505ZM17.1376 21.4313V15.7125H15.7126V21.4313H14.2876V15.7125H12.8532V21.4313H8.56885V22.8563H9.99385V28.575H11.4282V27.1407H18.572V28.575H19.997V22.8563H21.422V21.4313H17.1376ZM18.572 24.2813H11.4282V22.8563H18.572V24.2813ZM18.572 10.0032H19.997V12.8532H18.572V10.0032Z" fill="#1C2176"/>
<path d="M17.1375 12.8531H18.5719V15.7125H17.1375V12.8531ZM11.4281 28.575H18.5719V30H11.4281V28.575ZM11.4281 12.8531H12.8531V15.7125H11.4281V12.8531ZM9.99375 10.0031H11.4281V12.8531H9.99375V10.0031ZM8.56875 0H21.4219V1.425H8.56875V0ZM7.14375 19.9969H8.56875V21.4313H7.14375V19.9969ZM7.14375 1.425H8.56875V2.85937H7.14375V1.425ZM5.70938 18.5719H7.14375V19.9969H5.70938V18.5719ZM5.70938 2.85937H7.14375V4.28438H5.70938V2.85937ZM4.28438 17.1469H5.70938V18.5719H4.28438V17.1469ZM4.28438 4.28438H5.70938V5.71875H4.28438V4.28438ZM2.85938 5.71875H4.28438V17.1469H2.85938V5.71875Z" fill="#1C2176"/>
</svg>
