<svg width="50" height="50" viewBox="0 0 50 50" fill="none" xmlns="http://www.w3.org/2000/svg">
<path d="M42.8594 19.0469H45.2344V30.9531H42.8594V19.0469ZM40.4844 30.9531H42.8594V35.7188H40.4844V30.9531ZM40.4844 14.2813H42.8594V19.0469H40.4844V14.2813ZM42.8594 11.9062V9.53125H45.2344V7.14063H33.3281V19.0469H35.7188V16.6719H38.0937V14.2813H40.4844V11.9062H42.8594ZM38.0937 35.7188H40.4844V38.0937H38.0937V35.7188ZM35.7188 38.0937H38.0937V40.4844H35.7188V38.0937ZM30.9531 40.4844H35.7188V42.8594H30.9531V40.4844ZM21.4219 42.8594H30.9531V45.2344H21.4219V42.8594ZM19.0469 4.76562H28.5781V7.14063H19.0469V4.76562ZM14.2813 7.14063H19.0469V9.53125H14.2813V7.14063ZM11.9062 9.53125H14.2813V11.9062H11.9062V9.53125ZM9.53125 11.9062H11.9062V14.2813H9.53125V11.9062ZM7.14063 38.0937V40.4844H4.76562V42.8594H16.6719V30.9531H14.2813V33.3281H11.9062V35.7188H9.53125V38.0937H7.14063Z" fill="#1C2176"/>
<path d="M7.14063 30.9531H9.53125V35.7188H7.14063V30.9531ZM7.14063 14.2812H9.53125V19.0469H7.14063V14.2812ZM4.76562 19.0469H7.14063V30.9531H4.76562V19.0469Z" fill="#1C2176"/>
</svg>
