<svg width="45" height="45" viewBox="0 0 45 45" fill="none" xmlns="http://www.w3.org/2000/svg">
<circle cx="22.5" cy="22.5" r="17.5" fill="#DEBAFF"/>
<path d="M26.25 24.375H28.125V26.25H30V28.125H31.875V30H30V31.875H28.125V30H26.25V28.125H24.375V26.25H20.625V28.125H18.75V30H16.875V31.875H15V30H13.125V28.125H15V26.25H16.875V24.375H18.75V20.625H16.875V18.75H15V16.875H13.125V15H15V13.125H16.875V15H18.75V16.875H20.625V18.75H24.375V16.875H26.25V15H28.125V13.125H30V15H31.875V16.875H30V18.75H28.125V20.625H26.25V24.375Z" fill="#1C2176"/>
<path d="M41.25 16.875V13.125H39.375V9.375H37.5V7.5H35.625V5.625H31.875V3.75H28.125V1.875H16.875V3.75H13.125V5.625H9.375V7.5H7.5V9.375H5.625V13.125H3.75V16.875H1.875V28.125H3.75V31.875H5.625V35.625H7.5V37.5H9.375V39.375H13.125V41.25H16.875V43.125H28.125V41.25H31.875V39.375H35.625V37.5H37.5V35.625H39.375V31.875H41.25V28.125H43.125V16.875H41.25ZM39.375 28.125H37.5V31.875H35.625V35.625H31.875V37.5H28.125V39.375H16.875V37.5H13.125V35.625H9.375V31.875H7.5V28.125H5.625V16.875H7.5V13.125H9.375V9.375H13.125V7.5H16.875V5.625H28.125V7.5H31.875V9.375H35.625V13.125H37.5V16.875H39.375V28.125Z" fill="#1C2176"/>
</svg>
