<svg width="50" height="50" viewBox="0 0 50 50" fill="none" xmlns="http://www.w3.org/2000/svg">
<path d="M42.8594 19.0391H45.2344V30.9453H42.8594V19.0391ZM40.4688 30.9453H42.8594V35.7109H40.4688V30.9453ZM40.4688 14.2891H42.8594V19.0391H40.4688V14.2891ZM38.0937 35.7109H40.4688V38.0859H38.0937V35.7109ZM38.0937 11.8984H40.4688V14.2891H38.0937V11.8984ZM35.7031 38.0859H38.0937V40.4766H35.7031V38.0859ZM35.7031 26.1953H38.0937V28.5703H35.7031V26.1953ZM35.7031 9.52344H38.0937V11.8984H35.7031V9.52344ZM30.9531 19.0391H35.7031V23.8047H30.9531V19.0391ZM30.9531 40.4766H35.7031V42.8516H30.9531V40.4766ZM30.9531 14.2891H33.3281V16.6641H30.9531V14.2891ZM30.9531 7.13281H35.7031V9.52344H30.9531V7.13281ZM19.0469 42.8516H30.9531V45.2422H19.0469V42.8516ZM26.1875 30.9453H30.9531V35.7109H26.1875V30.9453ZM21.4219 38.0859H23.8125V40.4766H21.4219V38.0859ZM21.4219 23.8047H23.8125V26.1953H21.4219V23.8047ZM19.0469 4.75781H30.9531V7.13281H19.0469V4.75781ZM19.0469 11.8984H23.8125V16.6641H19.0469V11.8984ZM14.2813 40.4766H19.0469V42.8516H14.2813V40.4766ZM16.6562 33.3359H19.0469V35.7109H16.6562V33.3359ZM14.2813 7.13281H19.0469V9.52344H14.2813V7.13281ZM11.9062 38.0859H14.2813V40.4766H11.9062V38.0859ZM11.9062 19.0391H14.2813V21.4297H11.9062V19.0391ZM11.9062 9.52344H14.2813V11.8984H11.9062V9.52344ZM9.51563 35.7109H11.9062V38.0859H9.51563V35.7109ZM9.51563 23.8047H14.2813V28.5703H9.51563V23.8047ZM9.51563 11.8984H11.9062V14.2891H9.51563V11.8984ZM7.14063 30.9453H9.51563V35.7109H7.14063V30.9453ZM7.14063 14.2891H9.51563V19.0391H7.14063V14.2891ZM4.76562 19.0391H7.14063V30.9453H4.76562V19.0391Z" fill="#1C2176"/>
</svg>
