<svg width="40" height="40" viewBox="0 0 40 40" fill="none" xmlns="http://www.w3.org/2000/svg">
<path d="M34.2875 7.6125H28.575V1.9H30.475V0H3.8125V40H36.1875V5.7125H34.2875V7.6125ZM34.2875 38.1H5.7125V1.9H26.6625V9.525H34.2875V38.1Z" fill="#1C2176"/>
<path d="M32.3875 3.8124H34.2875V5.7124H32.3875V3.8124ZM30.475 1.8999H32.3875V3.8124H30.475V1.8999ZM26.6625 28.5749H24.7625V17.1374H20.95V28.5749H19.05V20.9499H15.2375V28.5749H9.525V24.7624H11.425V22.8624H9.525V19.0499H11.425V17.1374H9.525V13.3374H7.625V30.4749H32.3875V28.5749H30.475V19.0499H26.6625V28.5749Z" fill="#1C2176"/>
</svg>
