<svg width="30" height="30" viewBox="0 0 30 30" fill="none" xmlns="http://www.w3.org/2000/svg">
<path d="M2.85938 30H27.1406V7.14375H25.7156V5.71875H24.2906V4.28438H22.8562V2.85937H21.4313V1.425H19.9969V0H2.85938V30ZM4.28438 1.425H18.5719V8.56875H25.7156V28.575H4.28438V1.425Z" fill="#1C2176"/>
<path d="M7.1438 18.572V19.997H17.1469V22.8563H18.5719V19.997H21.4313V22.8563H22.8563V18.572H7.1438ZM21.4313 11.4282H19.9969V12.8532H18.5719V14.2876H19.9969V15.7126H21.4313V14.2876H22.8563V12.8532H21.4313V11.4282ZM18.5719 22.8563H21.4313V24.2813H18.5719V22.8563ZM8.5688 15.7126H10.0032V14.2876H11.4282V12.8532H10.0032V11.4282H8.5688V12.8532H7.1438V14.2876H8.5688V15.7126Z" fill="#1C2176"/>
</svg>
