<svg width="30" height="30" viewBox="0 0 30 30" fill="none" xmlns="http://www.w3.org/2000/svg">
<path d="M28.575 4.28906H30V5.71406H28.575V4.28906ZM28.575 14.2828H25.7156V15.7172H27.1406V20.0016H24.2812V18.5766H22.8562V21.4266H27.1406V25.7203H28.575V21.4266H30V20.0016H28.575V14.2828ZM28.575 8.57344H27.1406V9.99844H25.7156V11.4328H27.1406V12.8578H28.575V11.4328H30V9.99844H28.575V8.57344Z" fill="#1C2176"/>
<path d="M24.2813 15.7172H25.7157V18.5766H24.2813V15.7172ZM22.8563 5.71411H24.2813V7.14849H22.8563V5.71411ZM21.4313 11.4329H22.8563V14.2829H21.4313V11.4329ZM11.4282 24.286V17.1422H10.0032V21.4266H8.5688V22.861H7.1438V25.7204H8.5688V27.1454H21.4313V25.7204H22.8563V22.861H21.4313V21.4266H19.9969V17.1422H18.5719V24.286H11.4282ZM19.9969 14.2829H21.4313V15.7172H19.9969V14.2829ZM19.9969 9.99849H21.4313V11.4329H19.9969V9.99849ZM18.5719 2.85474H19.9969V4.28911H18.5719V2.85474ZM17.1469 15.7172H18.5719V17.1422H17.1469V15.7172ZM17.1469 9.99849H18.5719V11.4329H17.1469V9.99849Z" fill="#1C2176"/>
<path d="M15.7125 18.5766H17.1469V20.0016H15.7125V18.5766ZM12.8531 21.4266H17.1469V22.861H12.8531V21.4266ZM12.8531 14.2829H17.1469V15.7172H12.8531V14.2829ZM12.8531 18.5766H14.2875V20.0016H12.8531V18.5766ZM12.8531 7.14849V8.57349H11.4281V9.99849H12.8531V11.4329H14.2875V9.99849H15.7125V8.57349H14.2875V7.14849H12.8531ZM11.4281 15.7172H12.8531V17.1422H11.4281V15.7172ZM8.56875 11.4329H11.4281V12.8579H8.56875V11.4329ZM8.56875 14.2829H10.0031V15.7172H8.56875V14.2829ZM8.56875 2.85474H10.0031V4.28911H8.56875V2.85474ZM7.14375 12.8579H8.56875V14.2829H7.14375V12.8579ZM2.85937 14.2829V15.7172H4.28438V20.0016H1.425V18.5766H0V21.4266H4.28438V24.286H5.71875V21.4266H7.14375V20.0016H5.71875V14.2829H2.85937ZM5.71875 8.57349H7.14375V9.99849H5.71875V8.57349Z" fill="#1C2176"/>
<path d="M1.425 15.7172H2.85937V18.5766H1.425V15.7172ZM1.425 4.28906V5.71406H0V7.14844H1.425V8.57344H2.85937V7.14844H4.28438V5.71406H2.85937V4.28906H1.425Z" fill="#1C2176"/>
</svg>
