<svg width="99" height="102" viewBox="0 0 99 102" fill="none" xmlns="http://www.w3.org/2000/svg">
<path d="M79.1666 26H83.4166V30.25H79.1666V26ZM89.0833 7.58333V16.0833H87.6666V17.5H86.25V18.9167H83.4166V21.75H79.1666V17.5H80.5833V16.0833H83.4166V14.6667H84.8333V9H79.1666V10.4167H77.75V11.8333H74.9166V7.58333H76.3333V6.16667H77.75V4.75H86.25V6.16667H87.6666V7.58333H89.0833Z" fill="#1C2176"/>
<path d="M17.7083 27.625H67.2917V34.7083H17.7083V27.625ZM17.7083 84.2917H10.625V34.7083H17.7083V84.2917ZM67.2917 84.2917V91.375H17.7083V84.2917H67.2917ZM67.2917 84.2917H74.375V34.7083H67.2917V84.2917ZM35.4167 45.3333H28.3333V52.4167H35.4167V45.3333ZM49.5833 45.3333H56.6667V52.4167H49.5833V45.3333ZM53.125 63.0417H31.875V70.125H53.125V63.0417Z" fill="#1C2176"/>
</svg>
