<svg width="30" height="30" viewBox="0 0 30 30" fill="none" xmlns="http://www.w3.org/2000/svg">
<g clip-path="url(#clip0_345_32)">
<path d="M27.853 18.5719H29.2874V22.8562H27.853V18.5719ZM27.853 0H26.428V1.425H24.9937V2.85937H26.428V4.28438H27.853V2.85937H29.2874V1.425H27.853V0ZM26.428 10.0031H27.853V18.5719H26.428V10.0031ZM24.9937 22.8562H27.853V24.2812H24.9937V22.8562ZM24.9937 7.14375H26.428V10.0031H24.9937V7.14375ZM23.5687 24.2812H24.9937V25.7156H23.5687V24.2812ZM23.5687 19.9969H24.9937V22.8562H23.5687V19.9969ZM23.5687 5.71875H24.9937V7.14375H23.5687V5.71875ZM22.1437 25.7156H23.5687V27.1406H22.1437V25.7156ZM23.5687 10.0031H22.1437V11.4281H20.7093V12.8531H22.1437V14.2875H23.5687V12.8531H24.9937V11.4281H23.5687V10.0031ZM20.7093 4.28438H23.5687V5.71875H20.7093V4.28438ZM19.2843 27.1406H22.1437V28.575H19.2843V27.1406ZM16.4249 14.2875V18.5719H20.7093V14.2875H16.4249ZM19.2843 17.1469H17.8499V15.7125H19.2843V17.1469ZM9.28115 28.575H19.2843V30H9.28115V28.575ZM14.9999 19.9969H16.4249V22.8562H14.9999V19.9969ZM13.5655 2.85937H20.7093V4.28438H13.5655V2.85937ZM13.5655 14.2875H14.9999V12.8531H16.4249V11.4281H14.9999V10.0031H13.5655V11.4281H12.1405V12.8531H13.5655V14.2875ZM12.1405 22.8562H14.9999V24.2812H12.1405V22.8562ZM10.7155 4.28438H13.5655V5.71875H10.7155V4.28438ZM10.7155 19.9969H12.1405V22.8562H10.7155V19.9969ZM9.28115 5.71875H10.7155V7.14375H9.28115V5.71875ZM9.28115 0H10.7155V1.425H9.28115V0ZM6.42178 27.1406H9.28115V28.575H6.42178V27.1406ZM7.85615 7.14375H9.28115V10.0031H7.85615V7.14375ZM6.42178 10.0031H7.85615V18.5719H6.42178V10.0031ZM4.99678 25.7156H6.42178V27.1406H4.99678V25.7156ZM4.99678 4.28438H6.42178V8.56875H4.99678V4.28438ZM3.57178 24.2812H4.99678V25.7156H3.57178V24.2812ZM3.57178 18.5719H6.42178V19.9969H3.57178V18.5719ZM2.1374 2.85937H4.99678V4.28438H2.1374V2.85937ZM2.1374 22.8562H3.57178V24.2812H2.1374V22.8562ZM2.1374 17.1469H3.57178V18.5719H2.1374V17.1469ZM0.712402 8.56875H4.99678V10.0031H0.712402V8.56875ZM2.1374 5.71875H3.57178V7.14375H2.1374V5.71875ZM0.712402 18.5719H2.1374V22.8562H0.712402V18.5719ZM0.712402 12.8531H2.1374V14.2875H0.712402V12.8531ZM0.712402 4.28438H2.1374V5.71875H0.712402V4.28438Z" fill="#1C2176"/>
</g>
<defs>
<clipPath id="clip0_345_32">
<rect width="30" height="30" fill="white"/>
</clipPath>
</defs>
</svg>
