<svg width="45" height="45" viewBox="0 0 45 45" fill="none" xmlns="http://www.w3.org/2000/svg">
<path d="M9.375 3.75H16.875V7.5H13.125V11.25H9.375V3.75ZM9.375 22.5H5.625V11.25H9.375V22.5ZM13.125 26.25H9.375V22.5H13.125V26.25ZM16.875 30V26.25H13.125V30H5.625V26.25H1.875V30H5.625V33.75H13.125V41.25H16.875V33.75H20.625V30H16.875ZM16.875 30V33.75H13.125V30H16.875ZM28.125 7.5V11.25H16.875V7.5H28.125ZM35.625 11.25H31.875V7.5H28.125V3.75H35.625V11.25ZM35.625 22.5V11.25H39.375V22.5H35.625ZM31.875 26.25V22.5H35.625V26.25H31.875ZM28.125 30V26.25H31.875V30H28.125ZM28.125 33.75H24.375V30H28.125V33.75ZM28.125 33.75H31.875V41.25H28.125V33.75Z" fill="#9DFF9B"/>
</svg>
