<svg width="30" height="30" viewBox="0 0 30 30" fill="none" xmlns="http://www.w3.org/2000/svg">
<path d="M25.003 25.7156H26.428V30H25.003V25.7156ZM23.5687 24.2906H25.003V25.7156H23.5687V24.2906ZM22.1437 25.7156H23.5687V27.1406H22.1437V25.7156ZM22.1437 22.8562H23.5687V24.2906H22.1437V22.8562ZM20.7093 27.1406H22.1437V28.575H20.7093V27.1406ZM19.2843 21.4313H22.1437V22.8562H19.2843V21.4313ZM20.7093 10.0031H22.1437V14.2875H20.7093V10.0031ZM19.2843 28.575H20.7093V30H19.2843V28.575ZM19.2843 14.2875H20.7093V15.7125H19.2843V14.2875ZM17.8593 8.56875H20.7093V10.0031H17.8593V8.56875ZM17.8593 22.8562H19.2843V24.2906H17.8593V22.8562ZM16.4249 19.9969H19.2843V21.4313H16.4249V19.9969ZM17.8593 15.7125H19.2843V17.1469H17.8593V15.7125ZM16.4249 24.2906H17.8593V25.7156H16.4249V24.2906ZM16.4249 17.1469H17.8593V18.5719H16.4249V17.1469ZM16.4249 10.0031H17.8593V11.4281H16.4249V10.0031ZM14.9999 25.7156H16.4249V27.1406H14.9999V25.7156ZM14.9999 18.5719H16.4249V19.9969H14.9999V18.5719ZM14.9999 11.4281H16.4249V12.8531H14.9999V11.4281ZM13.5749 19.9969H14.9999V21.4313H13.5749V19.9969ZM13.5749 12.8531H14.9999V14.2875H13.5749V12.8531ZM12.1405 21.4313H13.5749V22.8562H12.1405V21.4313ZM12.1405 14.2875H13.5749V15.7125H12.1405V14.2875ZM10.7155 15.7125H12.1405V17.1469H10.7155V15.7125ZM10.7155 11.4281H12.1405V14.2875H10.7155V11.4281ZM9.28115 17.1469H10.7155V18.5719H9.28115V17.1469ZM9.28115 0V1.425H7.85615V4.28438H9.28115V5.71875H10.7155V7.14375H12.1405V8.56875H13.5749V7.14375H14.9999V5.71875H16.4249V4.28438H17.8593V1.425H16.4249V0H13.5749V1.425H12.1405V0H9.28115ZM6.43115 10.0031H10.7155V11.4281H6.43115V10.0031ZM7.85615 15.7125H6.43115V21.4313H7.85615V19.9969H9.28115V18.5719H7.85615V15.7125ZM4.99678 21.4313H6.43115V22.8562H4.99678V21.4313ZM4.99678 11.4281H6.43115V15.7125H4.99678V11.4281ZM3.57178 22.8562H4.99678V30H3.57178V22.8562Z" fill="#1C2176"/>
</svg>
