<svg width="100" height="100" viewBox="0 0 100 100" fill="none" xmlns="http://www.w3.org/2000/svg">
<path d="M95.25 33.3438H100V66.6562H95.25V33.3438ZM90.4688 66.6562H95.25V71.4375H90.4688V66.6562ZM90.4688 28.5625H95.25V33.3438H90.4688V28.5625ZM9.53125 71.4375H90.4688V76.1875H9.53125V71.4375ZM66.6875 52.375H90.4688V57.125H66.6875V52.375ZM57.1563 52.375H61.9062V57.125H57.1563V52.375ZM57.1563 42.8438H61.9062V47.625H57.1563V42.8438ZM52.375 47.625H57.1563V52.375H52.375V47.625ZM47.625 52.375H52.375V57.125H47.625V52.375ZM47.625 42.8438H52.375V47.625H47.625V42.8438ZM38.0938 52.375H42.875V57.125H38.0938V52.375ZM38.0938 42.8438H42.875V47.625H38.0938V42.8438ZM33.3438 47.625H38.0938V52.375H33.3438V47.625ZM28.5937 52.375H33.3438V57.125H28.5937V52.375ZM28.5937 42.8438H33.3438V47.625H28.5937V42.8438ZM19.0625 52.375H23.8125V57.125H19.0625V52.375ZM19.0625 42.8438H23.8125V47.625H19.0625V42.8438ZM14.2813 47.625H19.0625V52.375H14.2813V47.625ZM9.53125 23.8125H90.4688V28.5625H9.53125V23.8125ZM9.53125 52.375H14.2813V57.125H9.53125V52.375ZM9.53125 42.8438H14.2813V47.625H9.53125V42.8438ZM4.78125 66.6562H9.53125V71.4375H4.78125V66.6562ZM4.78125 28.5625H9.53125V33.3438H4.78125V28.5625ZM0 33.3438H4.78125V66.6562H0V33.3438Z" fill="#1C2176"/>
</svg>
