<svg width="30" height="30" viewBox="0 0 30 30" fill="none" xmlns="http://www.w3.org/2000/svg">
<g clip-path="url(#clip0_156_1025)">
<path d="M28.5656 5.71875H30V10.0031H28.5656V5.71875ZM27.1406 10.0031H28.5656V11.4281H27.1406V10.0031ZM27.1406 4.28438H28.5656V5.71875H27.1406V4.28438ZM25.7156 11.4281H27.1406V12.8531H25.7156V11.4281ZM25.7156 2.85938H27.1406V4.28438H25.7156V2.85938ZM24.2812 12.8531H25.7156V14.2875H24.2812V12.8531ZM24.2812 10.0031H25.7156V11.4281H24.2812V10.0031ZM24.2812 1.425H25.7156V2.85938H24.2812V1.425ZM22.8562 14.2875H24.2812V15.7125H22.8562V14.2875ZM22.8562 8.56875H24.2812V10.0031H22.8562V8.56875ZM21.4219 15.7125H22.8562V17.1469H21.4219V15.7125ZM21.4219 10.0031H22.8562V11.4281H21.4219V10.0031ZM21.4219 7.14375H22.8562V8.56875H21.4219V7.14375ZM19.9969 0H24.2812V1.425H19.9969V0ZM19.9969 17.1469H21.4219V18.5719H19.9969V17.1469ZM19.9969 11.4281H21.4219V12.8531H19.9969V11.4281ZM19.9969 5.71875H21.4219V7.14375H19.9969V5.71875ZM18.5719 18.5719H19.9969V19.9969H18.5719V18.5719ZM18.5719 12.8531H19.9969V14.2875H18.5719V12.8531ZM18.5719 7.14375H19.9969V8.56875H18.5719V7.14375ZM18.5719 4.28438H19.9969V5.71875H18.5719V4.28438ZM18.5719 1.425H19.9969V2.85938H18.5719V1.425ZM17.1375 19.9969H18.5719V21.4313H17.1375V19.9969ZM17.1375 14.2875H18.5719V15.7125H17.1375V14.2875ZM17.1375 8.56875H18.5719V10.0031H17.1375V8.56875ZM17.1375 2.85938H18.5719V4.28438H17.1375V2.85938ZM15.7125 21.4313H17.1375V22.8562H15.7125V21.4313ZM15.7125 15.7125H17.1375V17.1469H15.7125V15.7125ZM15.7125 10.0031H17.1375V11.4281H15.7125V10.0031ZM15.7125 4.28438H17.1375V5.71875H15.7125V4.28438ZM14.2875 22.8562H15.7125V24.2812H14.2875V22.8562ZM14.2875 17.1469H15.7125V18.5719H14.2875V17.1469ZM14.2875 11.4281H15.7125V12.8531H14.2875V11.4281ZM14.2875 5.71875H15.7125V7.14375H14.2875V5.71875ZM12.8531 24.2812H14.2875V25.7156H12.8531V24.2812ZM12.8531 18.5719H14.2875V19.9969H12.8531V18.5719ZM12.8531 12.8531H14.2875V14.2875H12.8531V12.8531ZM12.8531 7.14375H14.2875V8.56875H12.8531V7.14375ZM11.4281 25.7156H12.8531V27.1406H11.4281V25.7156ZM11.4281 19.9969H12.8531V21.4313H11.4281V19.9969ZM11.4281 14.2875H12.8531V15.7125H11.4281V14.2875ZM11.4281 8.56875H12.8531V10.0031H11.4281V8.56875ZM9.99375 21.4313H11.4281V22.8562H9.99375V21.4313ZM9.99375 15.7125H11.4281V17.1469H9.99375V15.7125ZM9.99375 10.0031H11.4281V11.4281H9.99375V10.0031ZM9.99375 28.575H11.4281V27.1406H9.99375V22.8562H7.14375V19.9969H2.85938V18.5719H1.425V19.9969H0V30H9.99375V28.575ZM8.56875 28.575H4.28438V27.1406H2.85938V25.7156H1.425V21.4313H5.70938V24.2812H8.56875V28.575ZM8.56875 17.1469H9.99375V18.5719H8.56875V17.1469ZM8.56875 11.4281H9.99375V12.8531H8.56875V11.4281ZM7.14375 18.5719H8.56875V19.9969H7.14375V18.5719ZM7.14375 12.8531H8.56875V14.2875H7.14375V12.8531ZM5.70938 14.2875H7.14375V15.7125H5.70938V14.2875ZM4.28438 15.7125H5.70938V17.1469H4.28438V15.7125ZM2.85938 17.1469H4.28438V18.5719H2.85938V17.1469Z" fill="#1C2176"/>
</g>
<defs>
<clipPath id="clip0_156_1025">
<rect width="30" height="30" fill="white"/>
</clipPath>
</defs>
</svg>
