<svg width="90" height="90" viewBox="0 0 90 90" fill="none" xmlns="http://www.w3.org/2000/svg">
<path d="M63.75 18.75V11.25H60V7.5H52.5V3.75H37.5V7.5H30V11.25H26.25V18.75H22.5V33.75H26.25V41.25H30V45H37.5V48.75H52.5V45H60V41.25H63.75V33.75H67.5V18.75H63.75ZM56.25 33.75V37.5H52.5V41.25H37.5V37.5H33.75V33.75H30V18.75H33.75V15H37.5V11.25H52.5V15H56.25V18.75H60V33.75H56.25ZM78.75 71.25V67.5H75V63.75H71.25V60H63.75V56.25H26.25V60H18.75V63.75H15V67.5H11.25V71.25H7.5V82.5H11.25V86.25H78.75V82.5H82.5V71.25H78.75ZM18.75 71.25V67.5H26.25V63.75H63.75V67.5H71.25V71.25H75V78.75H15V71.25H18.75Z" fill="#1C2176"/>
</svg>
