<svg width="100" height="100" viewBox="0 0 100 100" fill="none" xmlns="http://www.w3.org/2000/svg">
<path d="M88.0938 28.5625V33.3438H83.3438V38.0938H88.0938V42.875H92.8437V38.0938H97.625V33.3438H92.8437V28.5625H88.0938ZM88.0938 80.9688H92.8437V85.7188H88.0938V80.9688ZM78.5625 76.1875H73.8125V80.9688H78.5625V85.7188H83.3438V61.9062H78.5625V76.1875ZM78.5625 14.2813H83.3438V19.0625H78.5625V14.2813ZM73.8125 57.1563H78.5625V61.9062H73.8125V57.1563ZM64.2812 14.2813V9.53125H59.5312V4.75H54.75V0H40.4687V4.75H35.7188V9.53125H30.9375V14.2813H26.1875V52.375H21.4375V57.1563H26.1875V71.4375H21.4375V76.1875H30.9375V23.8125H64.2812V76.1875H73.8125V71.4375H69.0625V57.1563H73.8125V52.375H69.0625V14.2813H64.2812ZM54.75 85.7188H59.5312V95.25H54.75V85.7188Z" fill="#1C2176"/>
<path d="M30.9375 76.1875H64.2812V80.9688H30.9375V76.1875ZM50 57.1563H54.75V61.9062H50V57.1563ZM50 33.3438H54.75V38.0937H50V33.3438ZM45.25 85.7188H50V100H45.25V85.7188ZM45.25 61.9062H50V66.6563H45.25V61.9062ZM45.25 52.375H50V57.1563H45.25V52.375ZM45.25 38.0937H50V42.875H45.25V38.0937ZM45.25 28.5625H50V33.3438H45.25V28.5625ZM40.4688 57.1563H45.25V61.9062H40.4688V57.1563ZM40.4688 33.3438H45.25V38.0937H40.4688V33.3438ZM35.7188 85.7188H40.4688V95.25H35.7188V85.7188ZM16.6562 57.1563H21.4375V61.9062H16.6562V57.1563ZM16.6562 61.9062H11.9062V85.7188H16.6562V80.9688H21.4375V76.1875H16.6562V61.9062ZM11.9062 14.2813H16.6562V19.0625H11.9062V14.2813ZM7.15625 38.0937H11.9062V42.875H7.15625V38.0937ZM7.15625 19.0625H11.9062V23.8125H7.15625V19.0625ZM7.15625 9.53125H11.9062V14.2813H7.15625V9.53125ZM2.375 90.4688H7.15625V95.25H2.375V90.4688ZM2.375 14.2813H7.15625V19.0625H2.375V14.2813Z" fill="#1C2176"/>
</svg>
