<svg width="100" height="100" viewBox="0 0 100 100" fill="none" xmlns="http://www.w3.org/2000/svg">
<g clip-path="url(#clip0_111_202)">
<path d="M71.4219 29.9469V34.6969H66.6406V39.4781H61.8906V44.2281H57.1406V53.7594H61.8906V58.5094H66.6406V63.2906H71.4219V68.0406H76.1719V53.7594H95.2344V44.2281H76.1719V29.9469H71.4219ZM66.6406 77.5719H71.4219V87.1031H66.6406V77.5719ZM66.6406 6.13437H71.4219V20.4156H66.6406V6.13437ZM47.6094 96.6031V91.8531H66.6406V87.1031H47.6094V25.1969H42.8594V96.6031H47.6094ZM28.5469 96.6031H42.8594V101.384H28.5469V96.6031ZM33.3281 53.7594H38.0781V63.2906H33.3281V53.7594ZM33.3281 20.4156H42.8594V25.1969H33.3281V20.4156ZM19.0469 91.8531H28.5469V96.6031H19.0469V91.8531ZM23.7969 15.6656H33.3281V20.4156H23.7969V15.6656ZM9.51562 87.1031H19.0469V91.8531H9.51562V87.1031ZM14.2656 10.9156H23.7969V15.6656H14.2656V10.9156Z" fill="#1C2176"/>
<path d="M9.51563 1.38437V6.13437H4.76562V87.1031H9.51563V10.9156H14.2656V6.13437H66.6406V1.38437H9.51563Z" fill="#1C2176"/>
</g>
<defs>
<clipPath id="clip0_111_202">
<rect width="100" height="100" fill="white"/>
</clipPath>
</defs>
</svg>
