<svg width="30" height="30" viewBox="0 0 30 30" fill="none" xmlns="http://www.w3.org/2000/svg">
<path d="M27.8531 24.2859H29.2875V27.1453H27.8531V24.2859ZM26.4281 21.4266H27.8531V24.2859H26.4281V21.4266ZM2.13751 27.1453H27.8531V28.5703H2.13751V27.1453ZM25.0031 18.5672H26.4281V21.4266H25.0031V18.5672ZM23.5688 15.7172H25.0031V18.5672H23.5688V15.7172ZM22.1438 12.8578H23.5688V15.7172H22.1438V12.8578ZM20.7094 9.99844H22.1438V12.8578H20.7094V9.99844ZM19.2844 7.13906H20.7094V9.99844H19.2844V7.13906ZM17.8594 4.28906H19.2844V7.13906H17.8594V4.28906ZM16.425 2.85469H17.8594V4.28906H16.425V2.85469ZM13.5656 24.2859H16.425V22.8609H17.8594V20.0016H16.425V18.5672H13.5656V20.0016H12.1406V22.8609H13.5656V24.2859ZM13.5656 8.57344H16.425V17.1422H13.5656V8.57344ZM13.5656 1.42969H16.425V2.85469H13.5656V1.42969ZM12.1406 2.85469H13.5656V4.28906H12.1406V2.85469ZM10.7156 4.28906H12.1406V7.13906H10.7156V4.28906ZM9.28126 7.13906H10.7156V9.99844H9.28126V7.13906ZM7.85626 9.99844H9.28126V12.8578H7.85626V9.99844ZM6.43126 12.8578H7.85626V15.7172H6.43126V12.8578ZM4.99689 15.7172H6.43126V18.5672H4.99689V15.7172ZM3.57189 18.5672H4.99689V21.4266H3.57189V18.5672ZM2.13751 21.4266H3.57189V24.2859H2.13751V21.4266Z" fill="#1C2176"/>
<path d="M0.712524 24.2861H2.13752V27.1455H0.712524V24.2861Z" fill="#1C2176"/>
</svg>
