<svg width="90" height="90" viewBox="0 0 90 90" fill="none" xmlns="http://www.w3.org/2000/svg">
<g clip-path="url(#clip0_111_245)">
<path d="M85.725 77.1469H68.5969V4.275H85.725V0H12.8812V4.275H64.2938V25.7063H51.4406V30.0094H64.2938V42.8625H60.0187V47.1375H51.4406V42.8625H47.1656V47.1375H34.3125V38.5875H30.0094V47.1375H8.57812V38.5875H4.30312V47.1375H0V77.1469H4.30312V51.4406H42.8625V77.1469H4.30312V81.4219H8.57812V90H12.8812V81.4219H64.2938V90H68.5969V81.4219H85.725V90H90V4.275H85.725V77.1469Z" fill="#1C2176"/>
<path d="M30.0094 12.8532H47.1656V17.1563H30.0094V12.8532ZM17.1562 59.9906H30.0094V64.2938H17.1562V59.9906ZM8.57812 4.27502H12.8812V21.4313H8.57812V4.27502ZM25.7344 30.0094V38.5875H30.0094V34.2844H42.8625V42.8625H47.1656V38.5875H55.7156V42.8625H60.0187V34.2844H47.1656V30.0094H30.0094V25.7063H0V38.5875H4.30312V30.0094H25.7344Z" fill="#1C2176"/>
</g>
<defs>
<clipPath id="clip0_111_245">
<rect width="90" height="90" fill="white"/>
</clipPath>
</defs>
</svg>
