<svg width="30" height="30" viewBox="0 0 30 30" fill="none" xmlns="http://www.w3.org/2000/svg">
<path d="M24.2859 7.8562V23.5687H25.7203V7.8562H28.5703V6.4312H27.1453V4.99683H21.4266V2.13745H20.0016V4.99683H9.99844V2.13745H8.57344V4.99683H2.86406V6.4312H1.42969V7.8562H4.28906V23.5687H5.71406V7.8562H24.2859ZM22.8609 23.5687H24.2859V27.8531H22.8609V23.5687ZM7.14844 27.8531H22.8609V29.2875H7.14844V27.8531Z" fill="#1C2176"/>
<path d="M20.0016 10.7155H21.4266V22.1437H20.0016V10.7155ZM18.5766 22.1437H20.0016V24.9937H18.5766V22.1437ZM14.2922 10.7155H15.7172V24.9937H14.2922V10.7155ZM9.99849 0.712402H20.0016V2.1374H9.99849V0.712402ZM9.99849 22.1437H11.4329V24.9937H9.99849V22.1437ZM8.57349 10.7155H9.99849V22.1437H8.57349V10.7155ZM5.71411 23.5687H7.14849V27.853H5.71411V23.5687Z" fill="#1C2176"/>
</svg>
