<svg width="100" height="100" viewBox="0 0 100 100" fill="none" xmlns="http://www.w3.org/2000/svg">
<path d="M16.6667 16.6665H91.6667V58.3332H83.3334V24.9998H16.6667V74.9998H50V83.3332H8.33337V16.6665H16.6667ZM33.3334 33.3332H25V41.6665H33.3334V49.9998H41.6667V58.3332H58.3334V49.9998H66.6667V41.6665H75V33.3332H66.6667V41.6665H58.3334V49.9998H41.6667V41.6665H33.3334V33.3332ZM58.3334 74.9998H66.6667V83.3332H58.3334V74.9998ZM75 83.3332V91.6665H66.6667V83.3332H75ZM83.3334 74.9998H75V83.3332H83.3334V74.9998ZM83.3334 74.9998V66.6665H91.6667V74.9998H83.3334Z" fill="#1C2176"/>
</svg>
