<svg width="45" height="45" viewBox="0 0 45 45" fill="none" xmlns="http://www.w3.org/2000/svg">
<g clip-path="url(#clip0_419_5)">
<path d="M42.8484 4.28906H45V40.7109H42.8484V4.28906ZM40.7109 40.7109H42.8484V42.8625H40.7109V40.7109ZM40.7109 2.1375H42.8484V4.28906H40.7109V2.1375ZM38.5594 6.42656H40.7109V38.5734H38.5594V6.42656ZM4.275 42.8625H40.7109V45H4.275V42.8625ZM6.42656 38.5734H38.5594V40.7109H6.42656V38.5734ZM32.1328 21.4312H29.9953V19.2797H25.7063V21.4312H23.5688V19.2797H19.2797V32.1469H23.5688V25.7203H25.7063V23.5688H27.8578V25.7203H29.9953V32.1469H34.2844V23.5688H32.1328V21.4312ZM10.7016 19.2797H14.9906V32.1469H10.7016V19.2797ZM10.7016 12.8531H14.9906V17.1422H10.7016V12.8531ZM6.42656 4.28906H38.5594V6.42656H6.42656V4.28906ZM4.275 0H40.7109V2.1375H4.275V0ZM4.275 6.42656H6.42656V38.5734H4.275V6.42656ZM2.1375 40.7109H4.275V42.8625H2.1375V40.7109ZM2.1375 2.1375H4.275V4.28906H2.1375V2.1375ZM0 4.28906H2.1375V40.7109H0V4.28906Z" fill="#1C2176"/>
</g>
<defs>
<clipPath id="clip0_419_5">
<rect width="45" height="45" fill="white"/>
</clipPath>
</defs>
</svg>
