<svg width="30" height="30" viewBox="0 0 30 30" fill="none" xmlns="http://www.w3.org/2000/svg">
<g clip-path="url(#clip0_356_2)">
<path d="M23.5733 8.56874V12.8531H17.8546V15.7125H23.5733V19.9969H24.9983V18.5719H26.4327V17.1469H27.8577V15.7125H29.2827V12.8531H27.8577V11.4281H26.4327V10.0031H24.9983V8.56874H23.5733ZM19.289 19.9969H20.714V25.7156H19.289V19.9969ZM19.289 1.42499H20.714V8.56874H19.289V1.42499ZM13.5702 28.575V27.1406H19.289V25.7156H13.5702V7.14374H12.1452V28.575H13.5702ZM7.86084 28.575H12.1452V30H7.86084V28.575ZM9.28584 15.7125H10.7108V18.5719H9.28584V15.7125ZM9.28584 5.71874H12.1452V7.14374H9.28584V5.71874ZM5.00146 27.1406H7.86084V28.575H5.00146V27.1406ZM6.42646 4.28436H9.28584V5.71874H6.42646V4.28436ZM2.14209 25.7156H5.00146V27.1406H2.14209V25.7156ZM3.57646 2.85936H6.42646V4.28436H3.57646V2.85936Z" fill="#1C2176"/>
<path d="M2.14229 0V1.425H0.717285V25.7156H2.14229V2.85937H3.57666V1.425H19.2892V0H2.14229Z" fill="#1C2176"/>
</g>
<defs>
<clipPath id="clip0_356_2">
<rect width="30" height="30" fill="white"/>
</clipPath>
</defs>
</svg>
