<svg width="174" height="32" viewBox="0 0 174 32" fill="none" xmlns="http://www.w3.org/2000/svg">
<path d="M36.56 -2.38419e-06V12.16H26.92C26.92 12.16 26.9067 12.1733 26.88 12.2C26.88 12.2 26.8667 12.2 26.84 12.2C26.84 12.2 26.84 12.2133 26.84 12.24C26.84 13.4133 26.84 14.6 26.84 15.8C26.84 16.9733 26.84 18.16 26.84 19.36C26.84 20.5333 26.84 21.72 26.84 22.92C26.84 24.0933 26.84 25.28 26.84 26.48C26.84 27.6533 26.84 28.8267 26.84 30H10.24C10.24 28.0267 10.24 26.0533 10.24 24.08C10.24 22.1067 10.24 20.1333 10.24 18.16C10.24 16.1867 10.24 14.2133 10.24 12.24C10.24 12.2133 10.2267 12.2 10.2 12.2C10.2 12.1733 10.1867 12.16 10.16 12.16H0.52V-2.38419e-06H36.56ZM54.6891 31.2C53.0357 31.2 51.4357 31.08 49.8891 30.84C48.3424 30.6 46.9024 30.24 45.5691 29.76C44.2357 29.2533 43.0224 28.6267 41.9291 27.88C40.8357 27.1333 39.9024 26.2667 39.1291 25.28C38.3557 24.2667 37.7557 23.1333 37.3291 21.88C36.9024 20.6 36.6891 19.1867 36.6891 17.64C36.6891 15.8267 36.9824 14.2 37.5691 12.76C38.1824 11.2933 39.0357 10.0133 40.1291 8.92C41.2491 7.82667 42.5557 6.92 44.0491 6.2C45.5424 5.45333 47.1824 4.90667 48.9691 4.56C50.7824 4.18667 52.6891 4 54.6891 4C57.1957 4 59.5291 4.29333 61.6891 4.88C63.8757 5.44 65.7824 6.29333 67.4091 7.44C69.0624 8.56 70.3557 9.97333 71.2891 11.68C72.2224 13.3867 72.6891 15.3733 72.6891 17.64C72.6891 19.9067 72.2224 21.8933 71.2891 23.6C70.3557 25.28 69.0624 26.6933 67.4091 27.84C65.7824 28.96 63.8757 29.8 61.6891 30.36C59.5291 30.92 57.1957 31.2 54.6891 31.2ZM54.7291 20.6C56.3824 20.6 57.5557 20.28 58.2491 19.64C58.9424 19 59.2891 18.3067 59.2891 17.56C59.2891 17.2133 59.2091 16.8667 59.0491 16.52C58.8891 16.1733 58.6357 15.8533 58.2891 15.56C57.9424 15.2667 57.4757 15.04 56.8891 14.88C56.3024 14.6933 55.5824 14.6 54.7291 14.6C53.8757 14.6 53.1424 14.6933 52.5291 14.88C51.9424 15.04 51.4624 15.2667 51.0891 15.56C50.7424 15.8533 50.4891 16.1733 50.3291 16.52C50.1691 16.8667 50.0891 17.2267 50.0891 17.6C50.0891 17.9733 50.1691 18.3467 50.3291 18.72C50.4891 19.0667 50.7557 19.3867 51.1291 19.68C51.5024 19.9467 51.9824 20.1733 52.5691 20.36C53.1557 20.52 53.8757 20.6 54.7291 20.6ZM73.4859 13.12C73.4859 11.6 73.9126 10.28 74.7659 9.16C75.6459 8.04 76.8326 7.10667 78.3259 6.36C79.8193 5.58667 81.5126 5.01333 83.4059 4.64C85.2993 4.26667 87.2726 4.08 89.3259 4.08C91.8593 4.08 94.2059 4.30667 96.3659 4.76C98.5526 5.21333 100.526 5.81333 102.286 6.56V15.84C101.539 15.28 100.553 14.8 99.3259 14.4C98.1259 14 96.8459 13.6933 95.4859 13.48C94.1526 13.2667 92.8859 13.16 91.6859 13.16C90.8859 13.16 90.1526 13.2133 89.4859 13.32C88.8459 13.4 88.3259 13.5333 87.9259 13.72C87.5526 13.9067 87.3659 14.1467 87.3659 14.44C87.3659 14.6 87.4193 14.72 87.5259 14.8C87.6593 14.88 87.8459 14.9333 88.0859 14.96C88.3259 14.9867 88.6326 15 89.0059 15C89.6193 15 90.1659 15 90.6459 15C91.1259 15 91.6593 15 92.2459 15C93.5793 15 94.9126 15.0933 96.2459 15.28C97.6059 15.44 98.8326 15.7733 99.9259 16.28C101.046 16.7867 101.939 17.52 102.606 18.48C103.273 19.4133 103.606 20.6533 103.606 22.2C103.606 23.8267 103.153 25.2133 102.246 26.36C101.366 27.48 100.153 28.4 98.6059 29.12C97.0859 29.8133 95.3659 30.32 93.4459 30.64C91.5526 30.96 89.5793 31.12 87.5259 31.12C85.0993 31.12 82.6993 30.8933 80.3259 30.44C77.9793 29.9867 75.9659 29.32 74.2859 28.44V18.68C74.9526 19.4 75.8993 20 77.1259 20.48C78.3793 20.9333 79.7259 21.28 81.1659 21.52C82.6326 21.7333 84.0059 21.84 85.2859 21.84C86.1126 21.84 86.8593 21.8 87.5259 21.72C88.1926 21.6133 88.7126 21.4667 89.0859 21.28C89.4859 21.0667 89.6859 20.8 89.6859 20.48C89.6859 20.3467 89.6459 20.2533 89.5659 20.2C89.4859 20.1467 89.3526 20.1067 89.1659 20.08C89.0059 20.0533 88.7793 20.04 88.4859 20.04C88.0859 20.04 87.6726 20.04 87.2459 20.04C86.8193 20.04 86.4326 20.04 86.0859 20.04C85.1526 20.04 84.1126 20.0133 82.9659 19.96C81.8459 19.88 80.7259 19.7333 79.6059 19.52C78.4859 19.28 77.4593 18.92 76.5259 18.44C75.6193 17.9333 74.8859 17.2533 74.3259 16.4C73.7659 15.52 73.4859 14.4267 73.4859 13.12ZM104.823 30C104.823 27.52 104.823 25.0533 104.823 22.6C104.823 20.1467 104.823 17.6933 104.823 15.24C104.823 12.76 104.823 10.2933 104.823 7.84C104.823 6.50667 104.823 5.2 104.823 3.92C104.823 2.61333 104.823 1.30666 104.823 -2.38419e-06H118.663C118.663 0.826665 118.663 1.8 118.663 2.92C118.663 4.01333 118.663 5.16 118.663 6.36C118.663 7.56 118.663 8.72 118.663 9.84C118.663 11.3333 118.663 12.6133 118.663 13.68C118.663 14.7467 118.663 15.3467 118.663 15.48C118.663 15.6133 118.663 15.92 118.663 16.4C118.663 16.8533 118.663 17.4133 118.663 18.08C118.663 18.96 118.663 19.9467 118.663 21.04C118.663 22.1333 118.663 23.2533 118.663 24.4C118.663 25.52 118.663 26.5733 118.663 27.56C118.663 28.5467 118.663 29.36 118.663 30H104.823ZM122.903 30C122.903 28.96 122.903 27.92 122.903 26.88C122.903 25.84 122.903 24.8133 122.903 23.8C122.903 22.76 122.903 21.72 122.903 20.68C122.903 19.64 122.903 18.6 122.903 17.56C122.903 16.7867 122.703 16.2267 122.303 15.88C121.93 15.5333 121.477 15.3467 120.943 15.32C120.41 15.2667 119.917 15.3067 119.463 15.44C119.037 15.5733 118.77 15.72 118.663 15.88L121.863 5.6C122.823 5.17333 123.85 4.85333 124.943 4.64C126.037 4.42667 127.117 4.32 128.183 4.32C129.677 4.32 131.063 4.56 132.343 5.04C133.65 5.52 134.703 6.28 135.503 7.32C136.33 8.36 136.743 9.74667 136.743 11.48C136.743 13.5333 136.743 15.6 136.743 17.68C136.743 19.7333 136.743 21.7867 136.743 23.84C136.743 25.8933 136.743 27.9467 136.743 30H122.903ZM155.9 31.2C154.247 31.2 152.647 31.08 151.1 30.84C149.553 30.6 148.113 30.24 146.78 29.76C145.447 29.2533 144.233 28.6267 143.14 27.88C142.047 27.1333 141.113 26.2667 140.34 25.28C139.567 24.2667 138.967 23.1333 138.54 21.88C138.113 20.6 137.9 19.1867 137.9 17.64C137.9 15.8267 138.193 14.2 138.78 12.76C139.393 11.2933 140.247 10.0133 141.34 8.92C142.46 7.82667 143.767 6.92 145.26 6.2C146.753 5.45333 148.393 4.90667 150.18 4.56C151.993 4.18667 153.9 4 155.9 4C158.407 4 160.74 4.29333 162.9 4.88C165.087 5.44 166.993 6.29333 168.62 7.44C170.273 8.56 171.567 9.97333 172.5 11.68C173.433 13.3867 173.9 15.3733 173.9 17.64C173.9 19.9067 173.433 21.8933 172.5 23.6C171.567 25.28 170.273 26.6933 168.62 27.84C166.993 28.96 165.087 29.8 162.9 30.36C160.74 30.92 158.407 31.2 155.9 31.2ZM155.94 20.6C157.593 20.6 158.767 20.28 159.46 19.64C160.153 19 160.5 18.3067 160.5 17.56C160.5 17.2133 160.42 16.8667 160.26 16.52C160.1 16.1733 159.847 15.8533 159.5 15.56C159.153 15.2667 158.687 15.04 158.1 14.88C157.513 14.6933 156.793 14.6 155.94 14.6C155.087 14.6 154.353 14.6933 153.74 14.88C153.153 15.04 152.673 15.2667 152.3 15.56C151.953 15.8533 151.7 16.1733 151.54 16.52C151.38 16.8667 151.3 17.2267 151.3 17.6C151.3 17.9733 151.38 18.3467 151.54 18.72C151.7 19.0667 151.967 19.3867 152.34 19.68C152.713 19.9467 153.193 20.1733 153.78 20.36C154.367 20.52 155.087 20.6 155.94 20.6Z" fill="#1C2176"/>
</svg>
