<svg width="50" height="50" viewBox="0 0 50 50" fill="none" xmlns="http://www.w3.org/2000/svg">
<g clip-path="url(#clip0_363_16)">
<path d="M47.6094 19.0469H50V30.9531H47.6094V19.0469ZM45.2344 30.9531H47.6094V35.7188H45.2344V30.9531ZM45.2344 14.2813H47.6094V19.0469H45.2344V14.2813ZM42.8594 35.7188H45.2344V40.4688H42.8594V35.7188ZM42.8594 9.53125H45.2344V14.2813H42.8594V9.53125ZM40.4688 40.4688H42.8594V42.8594H40.4688V40.4688ZM40.4688 7.14063H42.8594V9.53125H40.4688V7.14063ZM35.7031 42.8594H40.4688V45.2344H35.7031V42.8594ZM35.7031 4.76562H40.4688V7.14063H35.7031V4.76562ZM33.3281 33.3281H35.7031V35.7188H33.3281V33.3281ZM14.2813 23.8125H16.6563V21.4219H33.3281V23.8125H35.7031V33.3281H38.0937V14.2813H35.7031V11.9062H33.3281V9.53125H16.6563V11.9062H14.2813V14.2813H11.9062V33.3281H14.2813V23.8125ZM30.9531 45.2344H35.7031V47.625H30.9531V45.2344ZM30.9531 35.7188H33.3281V38.0937H30.9531V35.7188Z" fill="#1C2176"/>
<path d="M30.9531 26.1875H33.3281V30.9531H30.9531V26.1875ZM30.9531 2.375H35.7031V4.76562H30.9531V2.375ZM19.0469 47.625H30.9531V50H19.0469V47.625ZM19.0469 38.0937H30.9531V40.4687H19.0469V38.0937ZM21.4219 33.3281H28.5625V35.7188H21.4219V33.3281ZM19.0469 0H30.9531V2.375H19.0469V0ZM14.2813 45.2344H19.0469V47.625H14.2813V45.2344ZM16.6562 35.7188H19.0469V38.0937H16.6562V35.7188ZM16.6562 26.1875H19.0469V30.9531H16.6562V26.1875ZM14.2813 2.375H19.0469V4.76562H14.2813V2.375ZM14.2813 33.3281H16.6562V35.7188H14.2813V33.3281ZM9.51563 42.8594H14.2813V45.2344H9.51563V42.8594ZM9.51563 4.76562H14.2813V7.14063H9.51563V4.76562ZM7.14063 40.4687H9.51563V42.8594H7.14063V40.4687ZM7.14063 7.14063H9.51563V9.53125H7.14063V7.14063ZM4.76562 35.7188H7.14063V40.4687H4.76562V35.7188ZM4.76562 9.53125H7.14063V14.2813H4.76562V9.53125ZM2.375 30.9531H4.76562V35.7188H2.375V30.9531ZM2.375 14.2813H4.76562V19.0469H2.375V14.2813ZM0 19.0469H2.375V30.9531H0V19.0469Z" fill="#1C2176"/>
</g>
<defs>
<clipPath id="clip0_363_16">
<rect width="50" height="50" fill="white"/>
</clipPath>
</defs>
</svg>
