<svg width="50" height="50" viewBox="0 0 50 50" fill="none" xmlns="http://www.w3.org/2000/svg">
<path d="M47.6094 19.0469H45.2344V23.8125H42.8594V26.1875H45.2344V30.9531H47.6094V26.1875H50V23.8125H47.6094V19.0469ZM42.8594 30.9531H45.2344V35.7188H42.8594V30.9531Z" fill="#1C2176"/>
<path d="M42.8594 14.2813H45.2344V19.0469H42.8594V14.2813ZM40.4687 35.7188H42.8594V40.4687H40.4687V35.7188ZM40.4687 9.51563H42.8594V14.2813H40.4687V9.51563ZM38.0937 38.0937H35.7031V42.8594H40.4687V40.4687H38.0937V38.0937ZM35.7031 7.14063H40.4687V9.51563H35.7031V7.14063ZM30.9531 42.8594H35.7031V45.2344H30.9531V42.8594ZM30.9531 35.7188H35.7031V38.0937H30.9531V35.7188ZM30.9531 30.9531H33.3281V33.3281H30.9531V30.9531ZM30.9531 4.76562H35.7031V7.14063H30.9531V4.76562ZM28.5625 21.4219H30.9531V26.1875H28.5625V21.4219ZM26.1875 42.8594H23.7969V45.2344H19.0469V47.625H23.7969V50H26.1875V47.625H30.9531V45.2344H26.1875V42.8594ZM19.0469 33.3281H30.9531V35.7188H19.0469V33.3281ZM21.4219 28.5625H28.5625V30.9531H21.4219V28.5625ZM23.7969 7.14063H26.1875V4.76562H30.9531V2.375H26.1875V0H23.7969V2.375H19.0469V4.76562H23.7969V7.14063ZM19.0469 21.4219H21.4219V26.1875H19.0469V21.4219ZM14.2812 42.8594H19.0469V45.2344H14.2812V42.8594ZM14.2812 35.7188H19.0469V38.0937H14.2812V35.7188ZM16.6562 30.9531H19.0469V33.3281H16.6562V30.9531ZM14.2812 4.76562H19.0469V7.14063H14.2812V4.76562Z" fill="#1C2176"/>
<path d="M16.6562 19.0469H19.0469V16.6719H30.9531V19.0469H33.3281V30.9531H35.7031V14.2813H33.3281V11.9062H30.9531V9.51563H19.0469V11.9062H16.6562V14.2813H14.2813V30.9531H16.6562V19.0469ZM11.9062 38.0938V40.4688H9.51563V42.8594H14.2813V38.0938H11.9062ZM9.51563 7.14062H14.2813V9.51563H9.51563V7.14062ZM7.14063 35.7188H9.51563V40.4688H7.14063V35.7188ZM7.14063 9.51563H9.51563V14.2813H7.14063V9.51563ZM4.75 30.9531H7.14063V35.7188H4.75V30.9531ZM4.75 14.2813H7.14063V19.0469H4.75V14.2813Z" fill="#1C2176"/>
<path d="M7.14063 26.1875V23.8125H4.75V19.0469H2.375V23.8125H0V26.1875H2.375V30.9531H4.75V26.1875H7.14063Z" fill="#1C2176"/>
</svg>
