<svg width="30" height="30" viewBox="0 0 30 30" fill="none" xmlns="http://www.w3.org/2000/svg">
<g clip-path="url(#clip0_270_188)">
<path d="M22.8562 18.5719H21.4219V21.4313H18.5719V22.8562H15.7125V24.2812H19.9969V25.7156H21.4219V27.1406H22.8562V28.575H24.2812V30H25.7156V28.575H27.1406V27.1406H28.5656V25.7156H30V24.2812H28.5656V22.8562H27.1406V21.4313H25.7156V19.9969H24.2812V15.7125H22.8562V18.5719ZM24.2812 10.0031H25.7156V15.7125H24.2812V10.0031ZM22.8562 7.14375H24.2812V10.0031H22.8562V7.14375ZM21.4219 4.28438H22.8562V7.14375H21.4219V4.28438ZM19.9969 11.4281H21.4219V14.2875H19.9969V11.4281ZM18.5719 8.56875H19.9969V11.4281H18.5719V8.56875ZM18.5719 2.85937H21.4219V4.28438H18.5719V2.85937ZM15.7125 7.14375H18.5719V8.56875H15.7125V7.14375ZM15.7125 1.425H18.5719V2.85937H15.7125V1.425ZM12.8531 5.71875H15.7125V7.14375H12.8531V5.71875ZM9.99375 24.2812H15.7125V25.7156H9.99375V24.2812ZM9.99375 0H15.7125V1.425H9.99375V0ZM7.14375 22.8562H9.99375V24.2812H7.14375V22.8562ZM7.14375 1.425H9.99375V2.85937H7.14375V1.425ZM4.28438 21.4313H7.14375V22.8562H4.28438V21.4313ZM4.28438 2.85937H7.14375V4.28438H4.28438V2.85937ZM2.85937 18.5719H4.28438V21.4313H2.85937V18.5719ZM2.85937 4.28438H4.28438V7.14375H2.85937V4.28438ZM1.425 15.7125H2.85937V18.5719H1.425V15.7125ZM1.425 7.14375H2.85937V10.0031H1.425V7.14375ZM0 10.0031H1.425V15.7125H0V10.0031Z" fill="#1C2176"/>
</g>
<defs>
<clipPath id="clip0_270_188">
<rect width="30" height="30" fill="white"/>
</clipPath>
</defs>
</svg>
