<svg width="40" height="40" viewBox="0 0 40 40" fill="none" xmlns="http://www.w3.org/2000/svg">
<g clip-path="url(#clip0_397_2)">
<path d="M29.525 25.7127H27.625V27.6127H25.7125V29.5252H21.9125V31.4252H25.7125V33.3252H27.625V35.2377H29.525V37.1377H31.425V39.0502H37.15V37.1377H39.05V31.4252H37.15V29.5252H35.2375V27.6127H33.3375V25.7127H31.425V21.9002H29.525V25.7127ZM31.425 29.5252H33.3375V31.4252H35.2375V33.3252H37.15V35.2377H35.2375V33.3252H33.3375V31.4252H31.425V29.5252ZM31.425 12.3752H33.3375V21.9002H31.425V12.3752ZM29.525 8.5627H31.425V12.3752H29.525V8.5627ZM27.625 6.66269H29.525V8.5627H27.625V6.66269ZM25.7125 4.7627H27.625V6.66269H25.7125V4.7627ZM21.9125 2.8502H25.7125V4.7627H21.9125V2.8502ZM6.67495 20.0002H8.57495V21.9002H10.475V23.8002H12.3875V25.7127H16.1875V23.8002H18.1V21.9002H20V20.0002H21.9125V18.0877H23.8124V16.1877H25.7125V14.2877H27.625V12.3752H25.7125V10.4752H23.8124V12.3752H21.9125V14.2877H20V16.1877H18.1V18.0877H16.1875V20.0002H12.3875V18.0877H10.475V16.1877H8.57495V18.0877H6.67495V20.0002ZM12.3875 31.4252H21.9125V33.3252H12.3875V31.4252ZM12.3875 0.950195H21.9125V2.8502H12.3875V0.950195ZM8.57495 29.5252H12.3875V31.4252H8.57495V29.5252ZM8.57495 2.8502H12.3875V4.7627H8.57495V2.8502ZM6.67495 27.6127H8.57495V29.5252H6.67495V27.6127ZM6.67495 4.7627H8.57495V6.66269H6.67495V4.7627ZM4.76245 25.7127H6.67495V27.6127H4.76245V25.7127ZM4.76245 6.66269H6.67495V8.5627H4.76245V6.66269ZM2.86245 21.9002H4.76245V25.7127H2.86245V21.9002ZM2.86245 8.5627H4.76245V12.3752H2.86245V8.5627ZM0.949951 12.3752H2.86245V21.9002H0.949951V12.3752Z" fill="#1C2176"/>
</g>
<defs>
<clipPath id="clip0_397_2">
<rect width="40" height="40" fill="white"/>
</clipPath>
</defs>
</svg>
