<svg width="40" height="40" viewBox="0 0 40 40" fill="none" xmlns="http://www.w3.org/2000/svg">
<g clip-path="url(#clip0_374_12)">
<path d="M38.0876 23.8062H40.0001V31.4187H38.0876V23.8062ZM36.1876 31.4187H38.0876V33.3312H36.1876V31.4187ZM34.2876 19.9937V21.9062H36.1876V23.8062H38.0876V16.1812H36.1876V19.9937H34.2876ZM34.2876 33.3312H36.1876V35.2312H34.2876V33.3312Z" fill="#1C2176"/>
<path d="M34.2876 10.4689H36.1876V16.1814H34.2876V10.4689ZM34.2876 21.9064H26.6626V23.8064H32.3751V25.7064H30.4751V27.6189H28.5626V29.5189H26.6626V23.8064H24.7626V31.4189H26.6626V33.3314H34.2876V31.4189H36.1876V23.8064H34.2876V21.9064ZM32.3751 4.75645H34.2876V10.4689H32.3751V4.75645ZM26.6626 35.2314H34.2876V37.1439H26.6626V35.2314ZM26.6626 18.0939H34.2876V19.9939H26.6626V18.0939ZM24.7626 33.3314H26.6626V35.2314H24.7626V33.3314ZM24.7626 19.9939H26.6626V21.9064H24.7626V19.9939ZM22.8501 2.85645H32.3751V4.75645H22.8501V2.85645Z" fill="#1C2176"/>
<path d="M22.85 31.4188H24.7625V33.3313H22.85V31.4188ZM22.85 23.8063H24.7625V21.9063H20.95V31.4188H22.85V23.8063ZM24.7625 14.2813H22.85V12.3813H17.1375V14.2813H15.2375V16.1813H17.1375V18.0938H22.85V16.1813H24.7625V14.2813ZM19.05 19.9938H20.95V21.9063H19.05V19.9938ZM17.1375 10.4688H22.85V4.75635H20.95V8.56885H19.05V4.75635H17.1375V10.4688ZM15.2375 31.4188H17.1375V33.3313H15.2375V31.4188ZM15.2375 23.8063H17.1375V31.4188H19.05V21.9063H15.2375V23.8063ZM13.325 33.3313H15.2375V35.2313H13.325V33.3313ZM13.325 19.9938H15.2375V21.9063H13.325V19.9938Z" fill="#1C2176"/>
<path d="M13.3249 21.9064H5.7124V23.8064H11.4249V25.7064H9.5249V27.6189H7.6124V29.5189H5.7124V23.8064H3.8124V31.4189H5.7124V33.3314H13.3249V31.4189H15.2374V23.8064H13.3249V21.9064ZM5.7124 35.2314H13.3249V37.1439H5.7124V35.2314ZM7.6124 2.85645H17.1374V4.75645H7.6124V2.85645ZM5.7124 18.0939H13.3249V19.9939H5.7124V18.0939ZM5.7124 4.75645H7.6124V10.4689H5.7124V4.75645ZM3.8124 33.3314H5.7124V35.2314H3.8124V33.3314ZM3.8124 10.4689H5.7124V16.1814H3.8124V10.4689ZM1.8999 31.4189H3.8124V33.3314H1.8999V31.4189Z" fill="#1C2176"/>
<path d="M3.8125 21.9062H5.7125V19.9937H3.8125V16.1812H1.9V23.8062H3.8125V21.9062ZM0 23.8062H1.9V31.4187H0V23.8062Z" fill="#1C2176"/>
</g>
<defs>
<clipPath id="clip0_374_12">
<rect width="40" height="40" fill="white"/>
</clipPath>
</defs>
</svg>
