<svg width="50" height="50" viewBox="0 0 50 50" fill="none" xmlns="http://www.w3.org/2000/svg">
<path d="M40.4687 17.8594H50V20.2344H40.4687V17.8594ZM45.2344 22.625H50V25H45.2344V22.625ZM14.2813 34.5313H26.1875V36.9063H38.0937V32.1406H45.2344V27.3906H42.8594V29.7656H2.375V27.3906H0V32.1406H14.2813V34.5313ZM38.0937 25H42.8594V27.3906H38.0937V25ZM35.7031 13.0938H40.4687V15.4844H35.7031V13.0938ZM33.3281 22.625H38.0937V25H33.3281V22.625ZM28.5625 20.2344H26.1875V22.625H33.3281V20.2344H30.9531V17.8594H28.5625V20.2344ZM30.9531 17.8594H33.3281V13.0938H26.1875V15.4844H30.9531V17.8594Z" fill="#1C2176"/>
<path d="M21.4219 15.4844H26.1875V17.8594H21.4219V15.4844ZM19.0469 22.625H26.1875V25H19.0469V22.625ZM16.6562 17.8594H21.4219V20.2344H16.6562V17.8594ZM11.9062 20.2344H16.6562V22.625H11.9062V20.2344ZM7.14063 22.625H11.9062V25H7.14063V22.625ZM2.375 25H7.14063V27.3906H2.375V25Z" fill="#1C2176"/>
</svg>
