<svg width="50" height="50" viewBox="0 0 50 50" fill="none" xmlns="http://www.w3.org/2000/svg">
<path d="M1.1875 34.5156V41.6719H5.95312V39.2812H3.57812V36.9063H5.95312V39.2812H10.7188V41.6719H15.4844V44.0469H17.8594V46.4219H15.4844V48.8125H22.625V46.4219H20.25V44.0469H22.625V41.6719H27.3906V39.2812H32.1406V36.9063H36.9063V34.5156H41.6719V32.1406H46.4375V34.5156H48.8125V27.375H46.4375V25H41.6719V20.2344H44.0469V10.7188H41.6719V13.0937H39.2969V15.4687H41.6719V17.8594H39.2969V20.2344H34.5313V22.625H29.7656V25H25V27.375H20.25V29.7656H17.8594V27.375H15.4844V25H10.7188V22.625H5.95312V20.2344H3.57812V17.8594H5.95312V20.2344H10.7188V22.625H15.4844V25H25V22.625H29.7656V20.2344H34.5313V17.8594H39.2969V15.4687H32.1406V17.8594H27.3906V20.2344H22.625V22.625H17.8594V20.2344H13.0937V17.8594H8.34375V15.4687H3.57812V13.0937H1.1875V22.625H3.57812V25H1.1875V32.1406H3.57812V34.5156H1.1875ZM3.57812 27.375H5.95312V25H8.34375V27.375H13.0937V29.7656H15.4844V32.1406H22.625V29.7656H27.3906V27.375H32.1406V25H36.9063V22.625H39.2969V27.375H34.5313V29.7656H29.7656V32.1406H25V34.5156H20.25V36.9063H15.4844V34.5156H10.7188V32.1406H5.95312V29.7656H3.57812V27.375Z" fill="#1C2176"/>
<path d="M41.6719 34.5156H46.4375V36.9063H41.6719V34.5156ZM36.9063 36.9063H41.6719V39.2813H36.9063V36.9063ZM36.9063 8.32813H41.6719V10.7188H36.9063V8.32813ZM32.1406 39.2813H36.9063V41.6719H32.1406V39.2813ZM32.1406 5.95313H36.9063V8.32813H32.1406V5.95313ZM27.3906 41.6719H32.1406V44.0469H27.3906V41.6719ZM27.3906 3.5625H32.1406V5.95313H27.3906V3.5625ZM22.625 1.1875H27.3906V3.5625H22.625V1.1875ZM22.625 44.0469H27.3906V46.4219H22.625V44.0469ZM17.8594 3.5625H22.625V5.95313H17.8594V3.5625ZM13.0938 5.95313H17.8594V8.32813H13.0938V5.95313ZM10.7188 44.0469H15.4844V46.4219H10.7188V44.0469ZM15.4844 17.8594H25V15.4688H29.7656V13.0938H34.5313V10.7188H27.3906V8.32813H20.25V10.7188H15.4844V13.0938H10.7188V15.4688H15.4844V17.8594ZM8.34375 8.32813H13.0938V10.7188H8.34375V8.32813ZM5.95312 41.6719H10.7188V44.0469H5.95312V41.6719ZM3.57812 10.7188H8.34375V13.0938H3.57812V10.7188Z" fill="#1C2176"/>
</svg>
