<svg width="50" height="50" viewBox="0 0 50 50" fill="none" xmlns="http://www.w3.org/2000/svg">
<g clip-path="url(#clip0_345_27)">
<path d="M47.6094 28.5781H50V45.2344H47.6094V28.5781ZM45.2344 45.2344H47.6094V47.625H45.2344V45.2344ZM45.2344 26.1875H47.6094V28.5781H45.2344V26.1875ZM45.2344 11.9062H47.6094V19.0469H45.2344V11.9062ZM42.8438 9.51563H45.2344V11.9062H42.8438V9.51563ZM28.5625 47.625H45.2344V50H28.5625V47.625ZM40.4687 38.0937H33.3281V30.9531H30.9375V45.2344H33.3281V40.4687H40.4687V45.2344H42.8438V30.9531H40.4687V38.0937ZM33.3281 28.5781H40.4687V30.9531H33.3281V28.5781ZM28.5625 23.8125H45.2344V26.1875H28.5625V23.8125ZM33.3281 2.375V4.76562H30.9375V7.14063H28.5625V9.51563H30.9375V11.9062H33.3281V14.2813H35.7031V9.51563H42.8438V7.14063H35.7031V2.375H33.3281ZM26.1875 45.2344H28.5625V47.625H26.1875V45.2344ZM26.1875 26.1875H28.5625V28.5781H26.1875V26.1875ZM23.7969 28.5781H26.1875V45.2344H23.7969V28.5781ZM23.7969 4.76562H26.1875V21.4219H23.7969V4.76562ZM21.4219 21.4219H23.7969V23.8125H21.4219V21.4219ZM21.4219 2.375H23.7969V4.76562H21.4219V2.375ZM16.6562 11.9062H19.0469V9.51563H21.4219V7.14063H14.2813V4.76562H11.8906V7.14063H4.75V9.51563H16.6562V11.9062ZM16.6562 47.625V45.2344H19.0469V42.8594H21.4219V40.4687H19.0469V38.0937H16.6562V35.7188H14.2813V40.4687H7.14063V42.8594H14.2813V47.625H16.6562ZM4.75 23.8125H21.4219V26.1875H4.75V23.8125ZM16.6562 19.0469H19.0469V21.4219H16.6562V19.0469ZM14.2813 16.6719H16.6562V19.0469H14.2813V16.6719ZM14.2813 11.9062H16.6562V14.2813H14.2813V11.9062ZM11.8906 14.2813H14.2813V16.6719H11.8906V14.2813ZM9.51563 16.6719H11.8906V19.0469H9.51563V16.6719ZM9.51563 11.9062H11.8906V14.2813H9.51563V11.9062ZM7.14063 19.0469H9.51563V21.4219H7.14063V19.0469ZM4.75 0H21.4219V2.375H4.75V0ZM4.75 38.0937H7.14063V40.4687H4.75V38.0937ZM2.375 30.9531H4.75V38.0937H2.375V30.9531ZM2.375 21.4219H4.75V23.8125H2.375V21.4219ZM2.375 2.375H4.75V4.76562H2.375V2.375ZM0 4.76562H2.375V21.4219H0V4.76562Z" fill="#1C2176"/>
</g>
<defs>
<clipPath id="clip0_345_27">
<rect width="50" height="50" fill="white"/>
</clipPath>
</defs>
</svg>
