<svg width="90" height="90" viewBox="0 0 90 90" fill="none" xmlns="http://www.w3.org/2000/svg">
<g clip-path="url(#clip0_376_5)">
<path d="M60.2844 42.8344H64.5875V68.5687H60.2844V42.8344ZM56.0094 38.5594H60.2844V42.8344H56.0094V38.5594ZM34.5781 25.7063V17.1281H38.8531V12.8531H43.1562V8.55H47.4313V12.8531H51.7063V17.1281H56.0094V25.7063H51.7063V29.9812H60.2844V25.7063H64.5875V12.8531H60.2844V4.275H56.0094V0H34.5781V4.275H30.275V12.8531H26V25.7063H30.275V29.9812H38.8531V25.7063H34.5781Z" fill="#1C2176"/>
<path d="M56.0234 51.4125H51.7203V59.9906H38.8672V51.4125H34.5781V68.5688H30.275V72.8438H34.5781V90H56.0234V72.8438H60.2984V68.5688H56.0234V51.4125ZM43.1562 85.6969H38.8672V77.1188H43.1703L43.1562 85.6969ZM51.7063 85.6969H47.4313V77.1188H51.7063V85.6969ZM51.7063 34.2844H56.0094V38.5594H51.7063V34.2844ZM43.1562 47.1375H47.4313V51.4125H43.1562V47.1375ZM43.1562 38.5594H47.4313V42.8344H43.1562V38.5594ZM38.8531 29.9813H51.7063V34.2844H38.8531V29.9813ZM34.5781 34.2844H38.8531V38.5594H34.5781V34.2844ZM30.275 38.5594H34.5781V42.8344H30.275V38.5594ZM26 42.8344H30.275V68.5688H26V42.8344Z" fill="#1C2176"/>
</g>
<defs>
<clipPath id="clip0_376_5">
<rect width="90" height="90" fill="white"/>
</clipPath>
</defs>
</svg>
