<svg width="90" height="90" viewBox="0 0 90 90" fill="none" xmlns="http://www.w3.org/2000/svg">
<path d="M83.5735 42.8625H87.8485V68.5687H83.5735V42.8625ZM79.2985 38.5875H83.5735V42.8625H79.2985V38.5875ZM79.2985 51.4406H74.9954V59.9906H62.1422V51.4406H57.8672V68.5687H53.5641V72.8719H57.8672V90H66.4454V77.1469H70.7204V90H79.2985V72.8719H83.5735V68.5687H79.2985V51.4406ZM74.9954 34.2844H79.2985V38.5875H74.9954V34.2844ZM74.9954 25.7063H79.2985V30.0094H74.9954V25.7063ZM66.4454 38.5875H70.7204V51.4406H66.4454V38.5875ZM62.1422 30.0094H74.9954V34.2844H62.1422V30.0094ZM57.8672 34.2844H62.1422V38.5875H57.8672V34.2844ZM57.8672 25.7063H62.1422V30.0094H57.8672V25.7063ZM53.5641 38.5875H57.8672V42.8625H53.5641V38.5875ZM62.1422 17.1562V12.8531H74.9954V17.1562H79.2985V25.7063H83.5735V8.57812H79.2985V4.275H74.9954V0H62.1422V4.275H57.8672V8.57812H53.5641V25.7063H57.8672V17.1562H62.1422ZM49.2891 42.8625H53.5641V68.5687H49.2891V42.8625ZM45.0141 77.1469H49.2891V81.4219H45.0141V77.1469ZM45.0141 8.57812H49.2891V12.8531H45.0141V8.57812ZM36.436 72.8719H45.0141V77.1469H36.436V72.8719ZM36.436 12.8531H45.0141V17.1562H36.436V12.8531ZM36.436 0H49.2891V4.275H36.436V0ZM36.436 85.725H49.2891V90H36.436V85.725ZM10.7297 64.2938V72.8719H15.0047V68.5687H32.1329V72.8719H36.436V68.5687H40.711V64.2938H27.8579V55.7156H23.5829V64.2938H10.7297ZM27.8579 4.275H36.436V8.57812H27.8579V4.275ZM27.8579 81.4219H36.436V85.725H27.8579V81.4219ZM19.2797 8.57812H27.8579V12.8531H19.2797V8.57812ZM19.2797 77.1469H27.8579V81.4219H19.2797V77.1469ZM15.0047 72.8719H19.2797V77.1469H15.0047V72.8719ZM10.7297 25.7063H23.5829V34.2844H27.8579V25.7063H49.2891V21.4312H36.436V17.1562H32.1329V21.4312H15.0047V17.1562H10.7297V25.7063ZM15.0047 12.8531H19.2797V17.1562H15.0047V12.8531Z" fill="#1C2176"/>
<path d="M6.42651 55.7157H10.7296V64.2938H6.42651V55.7157ZM6.42651 25.7063H10.7296V34.2844H6.42651V25.7063Z" fill="#1C2176"/>
<path d="M19.2797 42.8625H6.42661V34.2844H2.15161V55.7157H6.42661V47.1376H19.2797V55.7157H23.5829V47.1376H40.711V42.8625H23.5829V34.2844H19.2797V42.8625Z" fill="#1C2176"/>
</svg>
