<svg xmlns="http://www.w3.org/2000/svg" version="1.1" xmlns:xlink="http://www.w3.org/1999/xlink" width="90" height="90"><svg width="90" height="90" viewBox="0 0 90 90" fill="none" xmlns="http://www.w3.org/2000/svg">
<path d="M10.7156 4.275H79.2843V8.57812H15.0187V12.8531H79.2843V17.1562H10.7156V21.4312H15.0187V85.725H10.7156V90H83.5874V85.725H19.2937V21.4312H83.5874V85.725H87.8624V17.1562H83.5874V4.275H87.8624V0H10.7156V4.275Z" fill="#1C2176"></path>
<path d="M66.4312 68.5688H70.7343V72.8719H66.4312V68.5688ZM70.7343 34.2844H66.4312V30.0094H36.45V34.2844H32.1468V38.5875H27.8718V68.5688H32.1468V51.4407H36.45V47.1375H40.725V42.8625H62.1562V47.1375H66.4312V51.4407H70.7343V68.5688H75.0093V38.5875H70.7343V34.2844ZM36.45 72.8719H66.4312V77.1469H36.45V72.8719Z" fill="#1C2176"></path>
<path d="M57.8531 59.9906H62.1562V64.2938H57.8531V59.9906ZM57.8531 51.4407H62.1562V55.7156H57.8531V51.4407ZM45 64.2938H57.8531V68.5688H45V64.2938ZM40.7249 59.9906H45V64.2938H40.7249V59.9906ZM40.7249 51.4407H45V55.7156H40.7249V51.4407ZM32.1468 68.5688H36.45V72.8719H32.1468V68.5688ZM6.44058 81.4219H10.7156V85.725H6.44058V81.4219ZM6.44058 4.27502H10.7156V8.57815H6.44058V4.27502ZM6.44058 17.1563H10.7156V12.8532H6.44058V8.57815H2.13745V81.4219H6.44058V17.1563Z" fill="#1C2176"></path>
</svg><style>@media (prefers-color-scheme: light) { :root { filter: none; } }
@media (prefers-color-scheme: dark) { :root { filter: none; } }
</style></svg>